<svg width="64" height="64" viewBox="0 0 64 64" fill="none" xmlns="http://www.w3.org/2000/svg">
<g clip-path="url(#clip0_60_7175)">
<path d="M8 18.6667H16" stroke="#A21CAF" stroke-width="4" stroke-linecap="round" stroke-linejoin="round"/>
<path d="M8 29.3335H13.3333" stroke="#A21CAF" stroke-width="4" stroke-linecap="round" stroke-linejoin="round"/>
<path d="M24.0532 23.4694L22.4532 39.4694C22.3791 40.2108 22.4611 40.9596 22.6941 41.6673C22.927 42.3751 23.3056 43.0262 23.8056 43.5787C24.3056 44.1312 24.9158 44.5728 25.5969 44.875C26.2779 45.1772 27.0148 45.3334 27.7599 45.3334H49.0399C50.3625 45.3334 51.6379 44.8419 52.6185 43.9544C53.5991 43.0669 54.215 41.8468 54.3466 40.5307L55.9466 24.5307C56.0207 23.7893 55.9387 23.0406 55.7057 22.3328C55.4728 21.625 55.0941 20.9739 54.5942 20.4215C54.0942 19.869 53.484 19.4274 52.8029 19.1252C52.1219 18.8229 51.385 18.6668 50.6399 18.6667H29.3599C28.0373 18.6668 26.7619 19.1583 25.7813 20.0457C24.8007 20.9332 24.1848 22.1534 24.0532 23.4694Z" stroke="#A21CAF" stroke-width="4" stroke-linecap="round" stroke-linejoin="round"/>
<path d="M26.1333 20L34.0853 28.7467C34.792 29.5241 35.6448 30.1548 36.5953 30.6026C37.5457 31.0505 38.575 31.3067 39.6244 31.3567C40.6738 31.4067 41.7229 31.2496 42.7115 30.8941C43.7002 30.5387 44.6092 29.9921 45.3866 29.2853L54.1333 21.3333" stroke="#A21CAF" stroke-width="4" stroke-linecap="round" stroke-linejoin="round"/>
</g>
<defs>
<clipPath id="clip0_60_7175">
<rect width="64" height="64" fill="white"/>
</clipPath>
</defs>
</svg>
